<?xml version="1.0" standalone="no"?>
<!DOCTYPE svg PUBLIC "-//W3C//DTD SVG 20010904//EN"
 "http://www.w3.org/TR/2001/REC-SVG-20010904/DTD/svg10.dtd">
<svg version="1.0" xmlns="http://www.w3.org/2000/svg"
 width="320.000000pt" height="320.000000pt" viewBox="0 0 320.000000 320.000000"
 preserveAspectRatio="xMidYMid meet">

<g transform="translate(0.000000,320.000000) scale(0.100000,-0.100000)"
fill="#000000" stroke="none">
<path d="M2332 2333 c-104 -51 -221 -301 -278 -591 -18 -94 -31 -132 -51 -158
-14 -19 -27 -33 -29 -31 -2 1 6 32 17 67 12 38 20 92 20 130 0 36 2 91 5 123
5 52 3 62 -17 83 -17 18 -33 24 -67 24 -37 0 -50 -6 -78 -34 -29 -29 -34 -41
-34 -83 0 -29 -8 -65 -20 -88 -11 -22 -20 -48 -20 -60 -1 -15 -4 -13 -14 11
-21 48 -52 64 -122 64 l-62 0 -4 55 c-4 44 -11 62 -33 85 -25 27 -35 30 -87
30 -52 0 -62 -3 -95 -34 -35 -32 -37 -38 -41 -105 -4 -62 -1 -76 22 -114 l25
-45 -39 -56 c-31 -45 -40 -66 -40 -99 0 -54 13 -67 66 -67 38 0 47 5 85 48 23
26 39 38 34 27 -4 -11 -10 -49 -12 -85 -4 -56 -2 -70 19 -100 l24 -35 91 0
c80 0 95 3 122 23 29 21 33 22 53 7 15 -10 45 -15 88 -15 56 0 73 5 112 29
l45 29 7 -54 c8 -71 32 -130 64 -154 36 -29 139 -28 176 1 59 46 87 150 90
326 l1 113 81 0 c66 0 84 3 97 18 20 22 23 92 5 110 -7 7 -39 12 -73 12 -115
0 -113 -9 -30 160 108 223 133 355 79 419 -24 29 -31 31 -87 31 -37 0 -76 -7
-95 -17z m142 -55 c35 -49 6 -155 -101 -371 -65 -131 -82 -172 -73 -182 18
-22 80 -38 143 -38 47 0 57 -3 55 -16 -4 -23 -107 -27 -165 -7 l-44 15 7 -32
c11 -52 8 -237 -6 -302 -22 -109 -57 -155 -115 -155 -67 0 -95 56 -103 208
l-5 103 -56 -54 c-67 -64 -108 -87 -154 -87 -41 0 -87 33 -87 63 0 18 -5 16
-42 -20 -50 -49 -83 -63 -143 -63 -39 0 -46 4 -60 30 -8 16 -15 37 -15 48 0
23 39 139 73 215 14 31 23 57 19 57 -4 -1 -31 -9 -61 -19 -47 -17 -60 -27 -94
-78 -50 -73 -77 -103 -94 -103 -24 0 -13 28 43 109 45 66 52 82 39 87 -8 4
-27 26 -42 51 -20 35 -24 52 -20 86 10 73 89 114 131 68 23 -25 31 -87 17
-136 -6 -21 -9 -41 -6 -43 2 -3 22 3 45 12 58 23 115 21 141 -5 30 -30 21 -93
-30 -199 -42 -87 -49 -114 -30 -126 12 -7 117 97 136 137 7 13 26 70 43 126
31 100 32 103 65 109 84 15 89 -6 42 -164 -46 -153 -53 -192 -36 -192 22 0
104 70 148 126 37 47 43 62 65 176 39 202 125 428 195 517 55 69 144 93 175
49z m-510 -370 c26 -41 -42 -119 -78 -89 -24 20 -19 58 9 87 28 28 52 28 69 2z"/>
<path d="M2410 2219 c-58 -72 -115 -209 -196 -479 -14 -45 53 62 107 170 76
153 121 274 117 312 l-3 28 -25 -31z"/>
<path d="M1439 1860 c-31 -18 -32 -59 -4 -102 17 -25 30 -37 36 -31 16 16 23
111 9 128 -14 17 -19 18 -41 5z"/>
<path d="M2210 1645 c-40 -65 -66 -319 -38 -380 6 -14 17 -25 24 -25 24 0 56
110 61 211 6 103 -3 229 -17 229 -5 0 -18 -16 -30 -35z"/>
<path d="M1611 2284 c-22 -18 -31 -35 -31 -56 0 -29 -2 -30 -32 -25 -135 23
-411 47 -539 47 -124 0 -181 -21 -242 -90 -51 -56 -68 -99 -74 -190 -7 -92 8
-128 70 -168 23 -15 63 -49 88 -75 44 -45 49 -47 103 -47 65 0 63 7 42 -121
-16 -97 -38 -149 -64 -149 -29 0 -42 -21 -42 -66 0 -60 32 -84 112 -84 72 0
100 14 160 78 55 59 66 90 102 303 38 220 61 311 93 377 32 62 25 60 128 42
96 -16 251 -13 291 6 53 25 74 62 74 129 0 51 -3 60 -31 86 -28 27 -37 29
-104 29 -64 0 -77 -3 -104 -26z m167 -44 c47 -44 9 -122 -66 -136 -52 -10
-202 2 -273 22 l-62 18 -33 -38 c-44 -51 -81 -157 -105 -300 -30 -186 -60
-327 -76 -366 -38 -92 -141 -153 -204 -120 -24 14 -25 40 -1 40 11 0 26 8 34
18 39 44 50 88 73 312 18 171 48 277 110 382 l43 73 -32 8 c-17 4 -78 8 -136
10 -92 2 -110 -1 -148 -21 -54 -29 -112 -114 -119 -175 -5 -40 -2 -46 28 -72
l34 -28 3 24 c9 87 48 139 103 139 81 0 76 -141 -7 -186 -18 -10 -34 -24 -34
-31 0 -18 50 -53 76 -53 15 0 24 -6 24 -15 0 -11 -11 -15 -39 -15 -42 0 -95
34 -105 68 -3 9 -26 28 -52 41 -59 32 -78 68 -70 134 14 102 63 170 148 207
49 21 63 22 173 16 216 -11 351 -24 435 -41 115 -24 216 -18 241 14 15 18 17
27 8 37 -15 19 -63 18 -79 -1 -18 -21 -40 -19 -40 4 0 49 106 70 148 31z
m-653 -134 c0 -1 -14 -30 -32 -66 -21 -41 -33 -57 -33 -43 0 12 -12 35 -26 52
-22 26 -33 31 -72 31 -40 1 -44 2 -27 12 33 19 77 26 135 20 30 -2 55 -5 55
-6z"/>
<path d="M932 1983 c-19 -7 -42 -58 -42 -92 l0 -30 29 17 c29 16 51 49 51 76
0 18 -22 34 -38 29z"/>
</g>
</svg>
